<svg xmlns="http://www.w3.org/2000/svg" width="20" height="20" viewBox="0 0 511.62 511.619" fill="currentColor"><path d="M301.923 327.602c30.93-13.038 55.34-30.785 73.228-53.248 17.891-22.458 26.837-46.915 26.837-73.372 0-26.458-8.946-50.914-26.837-73.376-17.888-22.459-42.298-40.208-73.228-53.249-30.93-13.039-64.571-19.556-100.928-19.556-36.354 0-69.995 6.521-100.927 19.56C69.14 87.4 44.729 105.149 26.84 127.609 8.947 150.068 0 174.523 0 200.982c0 22.648 6.764 43.975 20.276 63.957 13.512 19.985 32.071 36.833 55.671 50.535-1.902 4.572-3.853 8.754-5.852 12.566a72.375 72.375 0 0 1-7.139 10.991 984.53 984.53 0 0 0-6.423 8.275c-1.523 1.998-3.997 4.809-7.424 8.422-3.428 3.617-5.618 5.996-6.567 7.135 0-.191-.383.24-1.143 1.287-.763 1.047-1.191 1.52-1.287 1.431-.094-.103-.476.373-1.141 1.42l-1 1.571-.715 1.423a5.979 5.979 0 0 0-.57 1.712c-.096.567-.144 1.19-.144 1.854s.094 1.28.286 1.854c.383 2.471 1.477 4.466 3.284 5.996 1.809 1.52 3.757 2.279 5.854 2.279h.857c9.515-1.332 17.701-2.854 24.552-4.569 29.312-7.614 55.771-19.797 79.372-36.545 17.128 3.046 33.88 4.568 50.248 4.568 36.354.012 69.999-6.503 100.928-19.542zm-159.739-23.835l-12.564 8.846c-5.33 3.614-11.227 7.331-17.7 11.14l9.995-23.986-27.694-15.988c-18.276-10.656-32.454-23.219-42.542-37.685-10.089-14.465-15.131-29.502-15.131-45.111 0-19.417 7.474-37.594 22.414-54.534 14.938-16.94 35.067-30.358 60.382-40.259 25.313-9.895 52.532-14.847 81.653-14.847 29.121 0 56.342 4.952 81.654 14.847 25.313 9.9 45.442 23.319 60.388 40.259 14.94 16.939 22.408 35.116 22.408 54.534 0 19.414-7.468 37.59-22.408 54.53-14.945 16.945-35.074 30.36-60.388 40.256-25.312 9.897-52.53 14.846-81.654 14.846-14.272 0-28.833-1.335-43.681-3.997l-15.132-2.851z"/><path d="M491.347 338.156c13.518-19.896 20.272-41.255 20.272-64.098 0-23.411-7.139-45.303-21.409-65.666-14.277-20.362-33.694-37.305-58.245-50.819 4.374 14.274 6.563 28.739 6.563 43.398 0 25.503-6.368 49.676-19.129 72.519-12.752 22.836-31.025 43.01-54.816 60.524-22.08 15.988-47.205 28.261-75.377 36.829-28.164 8.562-57.573 12.848-88.218 12.848-5.708 0-14.084-.377-25.122-1.137 38.256 25.119 83.177 37.685 134.756 37.685 16.371 0 33.119-1.526 50.251-4.571 23.6 16.755 50.06 28.931 79.37 36.549 6.852 1.718 15.037 3.237 24.554 4.568 2.283.195 4.381-.476 6.283-1.995 1.903-1.526 3.142-3.614 3.71-6.276-.089-1.143 0-1.77.287-1.861.281-.09.233-.712-.144-1.852-.376-1.144-.568-1.715-.568-1.715l-.712-1.424a13.68 13.68 0 0 0-.999-1.567c-.476-.66-.855-1.14-1.143-1.427-.28-.284-.705-.763-1.28-1.424-.568-.66-.951-1.092-1.143-1.283-.951-1.143-3.139-3.521-6.564-7.139-3.429-3.613-5.899-6.42-7.422-8.418a867.888 867.888 0 0 0-6.424-8.282 72.209 72.209 0 0 1-7.139-10.991c-1.998-3.806-3.949-7.995-5.852-12.56 23.594-13.716 42.156-30.512 55.66-50.415z"/></svg>
