<svg xmlns="http://www.w3.org/2000/svg" width="29" height="16" viewBox="0 0 29 16">
    <g fill="currentColor" fill-rule="nonzero">
        <path d="M28.502 7.358c-.059-.075-1.464-1.871-3.873-3.675C21.41 1.273 17.907 0 14.5 0 11.092 0 7.59 1.274 4.37 3.683 1.963 5.487.558 7.283.499 7.358L0 8l.498.642c.059.075 1.464 1.871 3.873 3.675C7.59 14.727 11.092 16 14.5 16c3.407 0 6.91-1.274 10.13-3.683 2.408-1.804 3.813-3.6 3.872-3.675L29 8l-.498-.642zM14.5 13.414c-2.93 0-5.314-2.429-5.314-5.414S11.57 2.586 14.5 2.586 19.814 5.015 19.814 8s-2.384 5.414-5.314 5.414zM2.646 8A21.488 21.488 0 0 1 5.62 5.317a18.313 18.313 0 0 1 3.286-1.96A7.405 7.405 0 0 0 7.282 8c0 1.76.61 3.376 1.624 4.643a18.312 18.312 0 0 1-3.286-1.96A21.465 21.465 0 0 1 2.646 8zm20.734 2.683a18.319 18.319 0 0 1-3.287 1.96A7.406 7.406 0 0 0 21.718 8c0-1.76-.61-3.376-1.625-4.643 1.291.59 2.404 1.303 3.287 1.96A21.482 21.482 0 0 1 26.353 8a21.488 21.488 0 0 1-2.973 2.683z"/>
        <path d="M13.84 4.027c-1.787.257-3.298 2.02-2.711 3.828.534-1.306 1.653-2.185 2.973-2.116 1.061.056 2.207 1.172 2.182 2.071.096 1.44-.827 2.51-2.136 3.033 3.03.978 4.753-2.851 3.365-5.1-.778-1.26-2.224-1.884-3.673-1.716z"/>
    </g>
</svg>
