<svg viewBox="-3 -4 20 20" x="0" y="0" xmlns="http://www.w3.org/2000/svg"><g fill="none" fill-rule="evenodd"><path d="M16.614 3.57a.877.877 0 0 0-.84-.638H9.568c-.59-1.82-1.182-3.639-1.773-5.459l-.133-.407-.003-.007a.913.913 0 0 0-.401-.509l-.012-.007a.854.854 0 0 0-.114-.054l-.048-.019c-.01-.003-.02-.009-.03-.011-.019-.006-.037-.006-.056-.01a.823.823 0 0 0-.093-.016c-.024-.002-.046-.002-.07-.002-.034 0-.07 0-.104.004-.02.002-.039.006-.058.01-.026.004-.053.005-.08.013-.014.004-.027.011-.04.016l-.014.005a.906.906 0 0 0-.55.58l-.003.007C5.349-.978 4.715.977 4.078 2.933H-2.13a.878.878 0 0 0-.838.638c-.112.405.08.75.4.982 1.65 1.2 3.3 2.398 4.951 3.597-.6 1.846-1.199 3.692-1.8 5.537l-.132.408c-.224.689.655 1.435 1.278.982l5.094-3.701 4.748 3.45.347.251c.623.453 1.501-.293 1.277-.982-.643-1.982-1.288-3.963-1.932-5.945a112212.864 112212.864 0 0 0 4.952-3.598c.32-.232.51-.577.399-.982z"/><path d="M7.262 9.555c-.227-.165-.651-.165-.879 0-1.147.835-2.295 1.668-3.443 2.502l1.169-3.596.132-.408c.129-.396-.091-.758-.4-.982L.54 4.671h4.17c.4 0 .717-.267.838-.638L6.823.108c.38 1.172.76 2.345 1.142 3.517l.133.408c.12.37.438.638.839.638h4.17L10.15 6.818l-.348.252c-.307.224-.528.586-.4.982l1.302 4.005-3.096-2.25-.347-.252z" fill="#FFF"/></g></svg>
